# xmcd
#
# Track frame offsets:
#	150
#	16856
#	36806
#	56190
#	72388
#	91322
#	113116
#	131046
#	146800
#	164274
#	187776
#	203724
#	221400
#	241584
#	255301
#	265919
#	277835
#	294198
#	309332
#	328073
#
# Disc length: 4559 seconds
#
# Revision: 0
# Processed by: cddbd v1.5.2PL0 Copyright (c) Steve Scherf et al.
# Submitted via: EZCDAudioConverter 3.1.0.1
#
DISCID=1911cd14
DTITLE=Nu Urban Traxx Volume 237 US
DYEAR=2017
DGENRE=blues
TTITLE0=The Weeknd - Reminder
TTITLE1=Big Boi ft. Killer Mike and Jeezy - Kill Jill
TTITLE2=Fat Joe and Remy Ma ft. The-Dream and Vindeta - Heartbreak
TTITLE3=Big Sean - Jump Out The Window
TTITLE4=Logic ft. Alessia Cara and Khalid - 1-800-273-8255
TTITLE5=DJ Khaled ft. Justin Bieber, Quavo, Chance The Rapper and Lil Wayne - 
TTITLE5=I'm The One
TTITLE6=Drake ft. Quavo and Travi$ Scott - Portland
TTITLE7=D.R.A.M. ft. A$AP Rocky and Juicy J - Gilligan
TTITLE8=SZA ft. Travis Scott - Love Galore
TTITLE9=Migos ft. Gucci Mane - Slippery
TTITLE10=2 Chainz ft. Trey Songz, Ty Dolla $ign and Jhene Aiko - It's A Vibe
TTITLE11=French Montana ft. Swae Lee - Unforgettable
TTITLE12=Rick Ross ft. Young Thug and Wale - Trap Trap Trap
TTITLE13=Yo Gotti - They Like
TTITLE14=XXXTENTACION - Look At Me
TTITLE15=NAV - Myself
TTITLE16=Charlie Wilson - Good Time
TTITLE17=R.LUM.R - Frustrated
TTITLE18=Jidenna - Bambi
TTITLE19=Bryson Tiller - Somethin Tells Me
EXTD=
EXTT0=
EXTT1=
EXTT2=
EXTT3=
EXTT4=
EXTT5=
EXTT6=
EXTT7=
EXTT8=
EXTT9=
EXTT10=
EXTT11=
EXTT12=
EXTT13=
EXTT14=
EXTT15=
EXTT16=
EXTT17=
EXTT18=
EXTT19=
PLAYORDER=
